# xmcd CD database file
#
# Track frame offsets:
#	150
#	13122
#	25062
#	36797
#	45662
#	57435
#	68500
#	80765
#	92200
#	105850
#	119950
#	132542
#	147500
#	159872
#	173347
#	186482
#	198750
#	215725
#	230522
#	244087
#	260687
#
# Disc length: 3709 seconds
#
# Revision: 0
# Processed by: cddbd v1.4PL0 Copyright (c) Steve Scherf et al.
# Submitted via: Feurio! 1.65 - http://www.feurio.com
#
DISCID=2d0e7b15
DTITLE=Duffy Power - Just Stay Blue
DYEAR=1900
DGENRE=Blues
TTITLE0=Love's Gonna Go
TTITLE1=There's No Living Without Your Loving
TTITLE2=I'm So Glad You're Mine
TTITLE3=Dollar Mamie
TTITLE4=Little Boy Blue
TTITLE5=Little Girl
TTITLE6=Mary Open The Door
TTITLE7=Hound Dog
TTITLE8=Rags And Old Iron
TTITLE9=Just Stay Blue
TTITLE10=Lilly
TTITLE11=Hell Hound
TTITLE12=Love Is Shelter
TTITLE13=Lawdy Miss Clawdy
TTITLE14=Love's Prescription
TTITLE15=Halfway
TTITLE16=Corrina
TTITLE17=Song About Jesus
TTITLE18=Lover's Prayer
TTITLE19=Swansong
TTITLE20=The River
EXTD=ARD RPM Retro 802
EXTT0=1965
EXTT1=1965
EXTT2=1965
EXTT3=1965
EXTT4=1966
EXTT5=1966
EXTT6=1966
EXTT7=1966
EXTT8=1966
EXTT9=1967
EXTT10=1970
EXTT11=1970
EXTT12=1970
EXTT13=1971
EXTT14=1971
EXTT15=1971
EXTT16=1971
EXTT17=1971
EXTT18=1971
EXTT19=1971
EXTT20=1971
PLAYORDER=
